<svg xmlns="http://www.w3.org/2000/svg" enable-background="new 0 0 64 64" viewBox="0 0 64 64" id="checklist"><rect width="55.2" height="44.93" x="4.4" y="9.54" fill="#b3bfeb"></rect><path d="M55.67,0.54H1.43C0.64,0.54,0,1.18,0,1.97v54.52c0,0.79,0.64,1.44,1.43,1.44h33.14c0.79,0,1.43-0.65,1.43-1.44
		c0-0.79-0.64-1.43-1.43-1.43h-13.6V43.58h13.6c0.79,0,1.43-0.65,1.43-1.44s-0.64-1.43-1.43-1.43h-13.6V27.05h15.16v2.18
		c0,0.79,0.64,1.44,1.43,1.44c0.79,0,1.43-0.65,1.43-1.44v-2.18h15.24v2.18c0,0.79,0.64,1.44,1.44,1.44c0.79,0,1.43-0.65,1.43-1.44
		V1.97C57.1,1.18,56.46,0.54,55.67,0.54z M18.1,55.06H2.87V43.58H18.1V55.06z M18.1,40.71H2.87V27.05H18.1V40.71z M18.1,24.18H2.87
		V13.29H18.1V24.18z M36.13,24.18H20.97V13.29h15.16V24.18z M54.23,24.18H38.99V13.29h15.24V24.18z M54.23,10.43H2.87V3.41h51.36
		V10.43z"></path><rect width="51.36" height="7.02" x="2.87" y="3.41" fill="#ffc064"></rect><path d="M62.57,32.9H39.41c-0.79,0-1.43,0.64-1.43,1.43v27.7c0,0.79,0.64,1.43,1.43,1.43h23.16c0.79,0,1.43-0.64,1.43-1.43v-27.7
		C64,33.54,63.36,32.9,62.57,32.9z M61.13,60.59H40.85V35.76h20.28V60.59z"></path><path fill="#e1e9ff" d="M40.85,35.76v24.83h20.28V35.76H40.85z M50.33,56.49c0,0.79-0.65,1.44-1.44,1.44h-6.06
		c-0.79,0-1.43-0.65-1.43-1.44v-6.06c0-0.79,0.64-1.43,1.43-1.43h6.06c0.79,0,1.44,0.64,1.44,1.43V56.49z M50.33,45.93
		c0,0.79-0.65,1.43-1.44,1.43h-6.06c-0.79,0-1.43-0.64-1.43-1.43v-6.06c0-0.8,0.64-1.44,1.43-1.44h6.06c0.79,0,1.44,0.64,1.44,1.44
		V45.93z M59.15,54.9h-6.58c-0.79,0-1.43-0.65-1.43-1.44s0.64-1.43,1.43-1.43h6.58c0.79,0,1.43,0.64,1.43,1.43
		S59.94,54.9,59.15,54.9z M59.15,44.33h-6.58c-0.79,0-1.43-0.64-1.43-1.43c0-0.8,0.64-1.44,1.43-1.44h6.58
		c0.79,0,1.43,0.64,1.43,1.44C60.58,43.69,59.94,44.33,59.15,44.33z"></path><path d="M48.89,38.43h-6.06c-0.79,0-1.43,0.64-1.43,1.44v6.06c0,0.79,0.64,1.43,1.43,1.43h6.06c0.79,0,1.44-0.64,1.44-1.43v-6.06
		C50.33,39.07,49.68,38.43,48.89,38.43z M47.46,44.49h-3.2V41.3h3.2V44.49z"></path><rect width="3.2" height="3.19" x="44.26" y="41.3" fill="#ea526c"></rect><path d="M60.58 42.9c0 .79-.64 1.43-1.43 1.43h-6.58c-.79 0-1.43-.64-1.43-1.43 0-.8.64-1.44 1.43-1.44h6.58C59.94 41.46 60.58 42.1 60.58 42.9zM48.89 49h-6.06c-.79 0-1.43.64-1.43 1.43v6.06c0 .79.64 1.44 1.43 1.44h6.06c.79 0 1.44-.65 1.44-1.44v-6.06C50.33 49.64 49.68 49 48.89 49zM47.46 55.06h-3.2v-3.19h3.2V55.06z"></path><rect width="3.2" height="3.19" x="44.26" y="51.87" fill="#ea526c"></rect><path d="M60.58,53.46c0,0.79-0.64,1.44-1.43,1.44h-6.58c-0.79,0-1.43-0.65-1.43-1.44s0.64-1.43,1.43-1.43h6.58
		C59.94,52.03,60.58,52.67,60.58,53.46z"></path></svg>